<?xml version="1.0" encoding="UTF-8" standalone="no"?>
<!-- Created with Inkscape (http://www.inkscape.org/) -->
<svg
   xmlns:dc="http://purl.org/dc/elements/1.1/"
   xmlns:cc="http://web.resource.org/cc/"
   xmlns:rdf="http://www.w3.org/1999/02/22-rdf-syntax-ns#"
   xmlns:svg="http://www.w3.org/2000/svg"
   xmlns="http://www.w3.org/2000/svg"
   xmlns:xlink="http://www.w3.org/1999/xlink"
   xmlns:sodipodi="http://sodipodi.sourceforge.net/DTD/sodipodi-0.dtd"
   xmlns:inkscape="http://www.inkscape.org/namespaces/inkscape"
   width="620"
   height="620"
   id="svg12831"
   sodipodi:version="0.32"
   inkscape:version="0.45.1"
   version="1.0"
   sodipodi:docbase="/home/Cheeseness/Desktop/Neverball/logo"
   sodipodi:docname="neverball_logo_final3.svg"
   inkscape:output_extension="org.inkscape.output.svg.inkscape"
   inkscape:export-filename="/home/Cheeseness/Desktop/Neverball/logo/putt_128_4.png"
   inkscape:export-xdpi="18.58"
   inkscape:export-ydpi="18.58">
  <defs
     id="defs12833">
    <linearGradient
       id="linearGradient3321">
      <stop
         style="stop-color:#000000;stop-opacity:1;"
         offset="0"
         id="stop3323" />
      <stop
         style="stop-color:#ffffff;stop-opacity:1;"
         offset="1"
         id="stop3325" />
    </linearGradient>
    <linearGradient
       id="linearGradient2788">
      <stop
         style="stop-color:white;stop-opacity:1"
         offset="0"
         id="stop2796" />
      <stop
         style="stop-color:white;stop-opacity:0"
         offset="1"
         id="stop2792" />
    </linearGradient>
    <clipPath
       clipPathUnits="userSpaceOnUse"
       id="clipPath12952">
      <path
         style="color:#000000;fill:#000000;fill-opacity:0.50196078;fill-rule:evenodd;stroke:none;stroke-width:1px;stroke-linecap:butt;stroke-linejoin:miter;marker:none;marker-start:none;marker-mid:none;marker-end:none;stroke-miterlimit:4;stroke-dashoffset:0;stroke-opacity:1;visibility:visible;display:inline;overflow:visible;enable-background:accumulate"
         d="M 256,187.9375 C 143.96803,187.9375 40.327474,209.06584 -44,244.875 L -44,624.375 L 256,624.375 L 256,187.9375 z "
         id="path12954" />
    </clipPath>
    <clipPath
       clipPathUnits="userSpaceOnUse"
       id="clipPath12990">
      <path
         sodipodi:type="arc"
         style="opacity:1;color:#000000;fill:#000000;fill-opacity:0.50196078;fill-rule:evenodd;stroke:none;stroke-width:1px;stroke-linecap:butt;stroke-linejoin:miter;marker:none;marker-start:none;marker-mid:none;marker-end:none;stroke-miterlimit:4;stroke-dasharray:none;stroke-dashoffset:0;stroke-opacity:1;visibility:visible;display:inline;overflow:visible;enable-background:accumulate"
         id="path12992"
         sodipodi:cx="256"
         sodipodi:cy="256"
         sodipodi:rx="256"
         sodipodi:ry="256"
         d="M 512 256 A 256 256 0 1 1  0,256 A 256 256 0 1 1  512 256 z" />
    </clipPath>
    <filter
       inkscape:collect="always"
       x="-0.22"
       width="1.4400001"
       y="-0.22"
       height="1.4400001"
       id="filter19294">
      <feGaussianBlur
         inkscape:collect="always"
         stdDeviation="67.32"
         id="feGaussianBlur19296" />
    </filter>
    <filter
       inkscape:collect="always"
       x="-0.2"
       width="1.4"
       y="-0.2"
       height="1.4"
       id="filter20282">
      <feGaussianBlur
         inkscape:collect="always"
         stdDeviation="51.2"
         id="feGaussianBlur20284" />
    </filter>
    <filter
       inkscape:collect="always"
       id="filter20286">
      <feGaussianBlur
         inkscape:collect="always"
         stdDeviation="20.1375"
         id="feGaussianBlur20288" />
    </filter>
    <filter
       inkscape:collect="always"
       id="filter20296">
      <feGaussianBlur
         inkscape:collect="always"
         stdDeviation="13.425"
         id="feGaussianBlur20298" />
    </filter>
    <clipPath
       clipPathUnits="userSpaceOnUse"
       id="clipPath22295">
      <path
         sodipodi:type="arc"
         style="opacity:1;color:#000000;fill:#000000;fill-opacity:1;fill-rule:evenodd;stroke:none;stroke-width:1px;stroke-linecap:butt;stroke-linejoin:miter;marker:none;marker-start:none;marker-mid:none;marker-end:none;stroke-miterlimit:4;stroke-dasharray:none;stroke-dashoffset:0;stroke-opacity:1;visibility:visible;display:inline;overflow:visible;enable-background:accumulate"
         id="path22297"
         sodipodi:cx="256"
         sodipodi:cy="256"
         sodipodi:rx="256"
         sodipodi:ry="256"
         d="M 512 256 A 256 256 0 1 1  0,256 A 256 256 0 1 1  512 256 z" />
    </clipPath>
    <radialGradient
       inkscape:collect="always"
       xlink:href="#linearGradient2788"
       id="radialGradient22363"
       gradientUnits="userSpaceOnUse"
       gradientTransform="matrix(1,0,0,1.075968,-68.868458,-430.42236)"
       cx="326.51562"
       cy="865.25305"
       fx="326.51562"
       fy="865.25305"
       r="241.70312" />
    <radialGradient
       inkscape:collect="always"
       xlink:href="#linearGradient2788"
       id="radialGradient22365"
       gradientUnits="userSpaceOnUse"
       gradientTransform="matrix(1.176048,9.599015e-4,0,0.898003,-136.58911,-253.71504)"
       cx="334.36053"
       cy="342.63467"
       fx="334.36053"
       fy="342.63467"
       r="138.3909" />
    <filter
       inkscape:collect="always"
       x="-0.1125"
       width="1.225"
       y="-0.22499999"
       height="1.45"
       id="filter3197">
      <feGaussianBlur
         inkscape:collect="always"
         stdDeviation="28.8"
         id="feGaussianBlur3199" />
    </filter>
    <filter
       id="filter26678"
       height="1.2362952"
       y="-0.11814762"
       width="1.1108893"
       x="-0.055444629"
       inkscape:collect="always">
      <feGaussianBlur
         id="feGaussianBlur26680"
         stdDeviation="4.6017907"
         inkscape:collect="always" />
    </filter>
    <filter
       id="filter9950"
       inkscape:collect="always">
      <feGaussianBlur
         id="feGaussianBlur9952"
         stdDeviation="6.3619967"
         inkscape:collect="always" />
    </filter>
    <linearGradient
       id="linearGradient2928"
       gradientTransform="scale(1.2702573,0.7872421)"
       x1="23.350678"
       y1="487.10944"
       x2="425.31061"
       y2="487.10944"
       gradientUnits="userSpaceOnUse">
      <stop
         style="stop-color: white; stop-opacity: 1;"
         offset="0"
         id="stop2930" />
      <stop
         style="stop-color:white;stop-opacity:0.15000001;"
         offset="1"
         id="stop2932" />
    </linearGradient>
    <linearGradient
       id="linearGradient11092"
       gradientTransform="scale(0.2705142,3.6966637)"
       x1="-500.44471"
       y1="-11.838199"
       x2="-355.07007"
       y2="-11.838199"
       gradientUnits="userSpaceOnUse">
      <stop
         id="stop11110"
         offset="0"
         style="stop-color:#5c5c5c;stop-opacity:1;" />
      <stop
         style="stop-color:#e8e8e8;stop-opacity:1;"
         offset="0.35027027"
         id="stop11120" />
      <stop
         style="stop-color:#ffffff;stop-opacity:1;"
         offset="0.54000002"
         id="stop11114" />
      <stop
         id="stop11116"
         offset="0.54000002"
         style="stop-color:#ffffff;stop-opacity:1;" />
      <stop
         id="stop11126"
         offset="0.7264865"
         style="stop-color:#c5c5c5;stop-opacity:1;" />
      <stop
         style="stop-color:#2c2c2c;stop-opacity:1;"
         offset="1"
         id="stop11096" />
    </linearGradient>
    <linearGradient
       inkscape:collect="always"
       xlink:href="#linearGradient11092"
       id="linearGradient2411"
       gradientUnits="userSpaceOnUse"
       gradientTransform="scale(0.2705142,3.6966637)"
       x1="-500.44471"
       y1="-11.838199"
       x2="-355.07007"
       y2="-11.838199" />
    <linearGradient
       inkscape:collect="always"
       xlink:href="#linearGradient2928"
       id="linearGradient2413"
       gradientUnits="userSpaceOnUse"
       gradientTransform="scale(1.2702573,0.7872421)"
       x1="23.350678"
       y1="487.10944"
       x2="425.31061"
       y2="487.10944" />
    <filter
       inkscape:collect="always"
       id="filter3406">
      <feGaussianBlur
         inkscape:collect="always"
         stdDeviation="16.653806"
         id="feGaussianBlur3408" />
    </filter>
    <filter
       inkscape:collect="always"
       id="filter3290">
      <feGaussianBlur
         inkscape:collect="always"
         stdDeviation="4.1351615"
         id="feGaussianBlur3292" />
    </filter>
    <filter
       inkscape:collect="always"
       id="filter3300">
      <feGaussianBlur
         inkscape:collect="always"
         stdDeviation="0.95493718"
         id="feGaussianBlur3302" />
    </filter>
    <filter
       inkscape:collect="always"
       id="filter3310">
      <feGaussianBlur
         inkscape:collect="always"
         stdDeviation="2.8648115"
         id="feGaussianBlur3312" />
    </filter>
    <linearGradient
       inkscape:collect="always"
       xlink:href="#linearGradient3321"
       id="linearGradient3327"
       x1="250.94328"
       y1="293.90845"
       x2="267.34061"
       y2="391.06793"
       gradientUnits="userSpaceOnUse" />
    <linearGradient
       inkscape:collect="always"
       xlink:href="#linearGradient3321"
       id="linearGradient3340"
       gradientUnits="userSpaceOnUse"
       x1="250.94328"
       y1="293.90845"
       x2="267.34061"
       y2="391.06793" />
    <mask
       maskUnits="userSpaceOnUse"
       id="mask3336">
      <path
         sodipodi:type="arc"
         style="opacity:1;color:#000000;fill:url(#linearGradient3340);fill-opacity:1;fill-rule:evenodd;stroke:none;stroke-width:1px;stroke-linecap:butt;stroke-linejoin:miter;marker:none;marker-start:none;marker-mid:none;marker-end:none;stroke-miterlimit:4;stroke-dasharray:none;stroke-dashoffset:0;stroke-opacity:1;visibility:visible;display:inline;overflow:visible;enable-background:accumulate"
         id="path3338"
         sodipodi:cx="317"
         sodipodi:cy="456.5"
         sodipodi:rx="297"
         sodipodi:ry="209.85683"
         d="M 614 456.5 A 297 209.85683 0 1 1  20,456.5 A 297 209.85683 0 1 1  614 456.5 z"
         transform="matrix(0.9973496,-7.2758073e-2,7.2758073e-2,0.9973496,-66.636085,13.571168)" />
    </mask>
    <filter
       inkscape:collect="always"
       id="filter3348">
      <feGaussianBlur
         inkscape:collect="always"
         stdDeviation="2.0675808"
         id="feGaussianBlur3350" />
    </filter>
  </defs>
  <sodipodi:namedview
     id="base"
     pagecolor="#ffffff"
     bordercolor="#666666"
     borderopacity="1.0"
     gridtolerance="10000"
     guidetolerance="10"
     objecttolerance="10"
     inkscape:pageopacity="0.0"
     inkscape:pageshadow="2"
     inkscape:zoom="1"
     inkscape:cx="298.06292"
     inkscape:cy="255.11165"
     inkscape:document-units="px"
     inkscape:current-layer="g2384"
     showguides="false"
     inkscape:guide-bbox="true"
     showgrid="false"
     inkscape:window-width="872"
     inkscape:window-height="835"
     inkscape:window-x="56"
     inkscape:window-y="25"
     width="620px"
     height="620px">
    <sodipodi:guide
       orientation="vertical"
       position="256"
       id="guide12843" />
    <sodipodi:guide
       orientation="vertical"
       position="0"
       id="guide12845" />
    <sodipodi:guide
       orientation="vertical"
       position="512"
       id="guide12847" />
    <sodipodi:guide
       orientation="horizontal"
       position="440.52752"
       id="guide12849" />
    <sodipodi:guide
       orientation="horizontal"
       position="954"
       id="guide12855" />
  </sodipodi:namedview>
  <metadata
     id="metadata12836">
    <rdf:RDF>
      <cc:Work
         rdf:about="">
        <dc:format>image/svg+xml</dc:format>
        <dc:type
           rdf:resource="http://purl.org/dc/dcmitype/StillImage" />
      </cc:Work>
    </rdf:RDF>
  </metadata>
  <g
     inkscape:groupmode="layer"
     id="layer3"
     inkscape:label="Masks"
     style="display:none">
    <path
       sodipodi:type="arc"
       style="opacity:1;color:#000000;fill:#000000;fill-opacity:0.50196078;fill-rule:evenodd;stroke:none;stroke-width:1px;stroke-linecap:butt;stroke-linejoin:miter;marker:none;marker-start:none;marker-mid:none;marker-end:none;stroke-miterlimit:4;stroke-dasharray:none;stroke-dashoffset:0;stroke-opacity:1;visibility:visible;display:inline;overflow:visible;enable-background:accumulate"
       id="path12829"
       sodipodi:cx="256"
       sodipodi:cy="256"
       sodipodi:rx="512"
       sodipodi:ry="300"
       d="M 768 256 A 512 300 0 1 1  -256,256 A 512 300 0 1 1  768 256 z"
       transform="translate(0,231.93102)" />
    <rect
       style="opacity:1;color:#000000;fill:#000000;fill-opacity:0.50196078;fill-rule:evenodd;stroke:none;stroke-width:1px;stroke-linecap:butt;stroke-linejoin:miter;marker:none;marker-start:none;marker-mid:none;marker-end:none;stroke-miterlimit:4;stroke-dasharray:none;stroke-dashoffset:0;stroke-opacity:1;visibility:visible;display:inline;overflow:visible;enable-background:accumulate"
       id="rect12879"
       width="300"
       height="752.36163"
       x="256"
       y="-128" />
    <path
       sodipodi:type="arc"
       style="opacity:1;color:#000000;fill:#000000;fill-opacity:0.50196078;fill-rule:evenodd;stroke:none;stroke-width:1px;stroke-linecap:butt;stroke-linejoin:miter;marker:none;marker-start:none;marker-mid:none;marker-end:none;stroke-miterlimit:4;stroke-dasharray:none;stroke-dashoffset:0;stroke-opacity:1;visibility:visible;display:inline;overflow:visible;enable-background:accumulate"
       id="path12997"
       sodipodi:cx="256"
       sodipodi:cy="256"
       sodipodi:rx="256"
       sodipodi:ry="256"
       d="M 512 256 A 256 256 0 1 1  0,256 A 256 256 0 1 1  512 256 z" />
  </g>
  <g
     inkscape:groupmode="layer"
     id="layer7"
     inkscape:label="ballshadow"
     style="display:none">
    <path
       transform="translate(54,162)"
       d="M 512 256 A 256 128 0 1 1  0,256 A 256 128 0 1 1  512 256 z"
       sodipodi:ry="128"
       sodipodi:rx="256"
       sodipodi:cy="256"
       sodipodi:cx="256"
       id="path14938"
       style="opacity:1;color:#000000;fill:#000000;fill-opacity:1;fill-rule:evenodd;stroke:none;stroke-width:1px;stroke-linecap:butt;stroke-linejoin:miter;marker:none;marker-start:none;marker-mid:none;marker-end:none;stroke-miterlimit:4;stroke-dasharray:none;stroke-dashoffset:0;stroke-opacity:1;visibility:visible;display:inline;overflow:visible;filter:url(#filter3197);enable-background:accumulate"
       sodipodi:type="arc" />
  </g>
  <g
     inkscape:groupmode="layer"
     id="layer4"
     inkscape:label="ball"
     style="display:inline">
    <g
       id="g5214"
       transform="translate(54,0)">
      <g
         clip-path="url(#clipPath22295)"
         id="g22289">
        <path
           d="M 512 256 A 256 256 0 1 1  0,256 A 256 256 0 1 1  512 256 z"
           sodipodi:ry="256"
           sodipodi:rx="256"
           sodipodi:cy="256"
           sodipodi:cx="256"
           id="path11852"
           style="opacity:1;color:#000000;fill:#ff0000;fill-opacity:1;fill-rule:evenodd;stroke:none;stroke-width:3;stroke-linecap:butt;stroke-linejoin:miter;marker:none;marker-start:none;marker-mid:none;marker-end:none;stroke-miterlimit:4;stroke-dasharray:none;stroke-dashoffset:0;stroke-opacity:1;visibility:visible;display:inline;overflow:visible;enable-background:accumulate"
           sodipodi:type="arc" />
        <path
           clip-path="url(#clipPath12990)"
           id="rect12958"
           d="M 256,-128 L 256,187.9375 C 368.03197,187.9375 471.67253,209.06584 556,244.875 L 556,-128 L 256,-128 z "
           style="color:#000000;fill:#000000;fill-opacity:1;fill-rule:evenodd;stroke:none;stroke-width:1px;stroke-linecap:butt;stroke-linejoin:miter;marker:none;marker-start:none;marker-mid:none;marker-end:none;stroke-miterlimit:4;stroke-dashoffset:0;stroke-opacity:1;visibility:visible;display:inline;overflow:visible;enable-background:accumulate" />
        <path
           clip-path="url(#clipPath12952)"
           d="M 512 256 A 256 256 0 1 1  0,256 A 256 256 0 1 1  512 256 z"
           sodipodi:ry="256"
           sodipodi:rx="256"
           sodipodi:cy="256"
           sodipodi:cx="256"
           id="path12908"
           style="opacity:1;color:#000000;fill:#000000;fill-opacity:1;fill-rule:evenodd;stroke:none;stroke-width:1px;stroke-linecap:butt;stroke-linejoin:miter;marker:none;marker-start:none;marker-mid:none;marker-end:none;stroke-miterlimit:4;stroke-dasharray:none;stroke-dashoffset:0;stroke-opacity:1;visibility:visible;display:inline;overflow:visible;enable-background:accumulate"
           sodipodi:type="arc" />
        <path
           d="M 512 256 A 256 256 0 1 1  0,256 A 256 256 0 1 1  512 256 z"
           sodipodi:ry="256"
           sodipodi:rx="256"
           sodipodi:cy="256"
           sodipodi:cx="256"
           id="path20312"
           style="opacity:0.6;color:#000000;fill:url(#radialGradient22363);fill-opacity:1;fill-rule:evenodd;stroke:none;stroke-width:2;stroke-linecap:butt;stroke-linejoin:miter;marker:none;marker-start:none;marker-mid:none;marker-end:none;stroke-miterlimit:4;stroke-dasharray:none;stroke-dashoffset:0;stroke-opacity:1;visibility:visible;display:inline;overflow:visible;enable-background:accumulate"
           sodipodi:type="arc" />
        <path
           sodipodi:type="arc"
           style="opacity:1;color:#000000;fill:none;fill-opacity:1;fill-rule:evenodd;stroke:#000000;stroke-width:100;stroke-linecap:butt;stroke-linejoin:miter;marker:none;marker-start:none;marker-mid:none;marker-end:none;stroke-miterlimit:4;stroke-dasharray:none;stroke-dashoffset:0;stroke-opacity:1;visibility:visible;display:inline;overflow:visible;filter:url(#filter19294);enable-background:accumulate"
           id="path15985"
           sodipodi:cx="256"
           sodipodi:cy="256"
           sodipodi:rx="256"
           sodipodi:ry="256"
           d="M 512 256 A 256 256 0 1 1  0,256 A 256 256 0 1 1  512 256 z" />
        <path
           sodipodi:type="arc"
           style="opacity:0.2;color:#000000;fill:#ffffff;fill-opacity:1;fill-rule:evenodd;stroke:none;stroke-width:1px;stroke-linecap:butt;stroke-linejoin:miter;marker:none;marker-start:none;marker-mid:none;marker-end:none;stroke-miterlimit:4;stroke-dasharray:none;stroke-dashoffset:0;stroke-opacity:1;visibility:visible;display:inline;overflow:visible;filter:url(#filter20282);enable-background:accumulate"
           id="path17147"
           sodipodi:cx="256"
           sodipodi:cy="256"
           sodipodi:rx="256"
           sodipodi:ry="256"
           d="M 512 256 A 256 256 0 1 1  0,256 A 256 256 0 1 1  512 256 z" />
        <path
           sodipodi:type="arc"
           style="opacity:0.16352198;color:#000000;fill:none;fill-opacity:1;fill-rule:evenodd;stroke:#000000;stroke-width:25;stroke-linecap:butt;stroke-linejoin:miter;marker:none;marker-start:none;marker-mid:none;marker-end:none;stroke-miterlimit:4;stroke-dasharray:none;stroke-dashoffset:0;stroke-opacity:1;visibility:visible;display:inline;overflow:visible;filter:url(#filter20286);enable-background:accumulate"
           id="path18315"
           sodipodi:cx="256"
           sodipodi:cy="256"
           sodipodi:rx="256"
           sodipodi:ry="256"
           d="M 512 256 A 256 256 0 1 1  0,256 A 256 256 0 1 1  512 256 z" />
        <path
           sodipodi:type="arc"
           style="opacity:1;color:#000000;fill:none;fill-opacity:1;fill-rule:evenodd;stroke:#000000;stroke-width:25;stroke-linecap:butt;stroke-linejoin:miter;marker:none;marker-start:none;marker-mid:none;marker-end:none;stroke-miterlimit:4;stroke-dasharray:none;stroke-dashoffset:0;stroke-opacity:1;visibility:visible;display:inline;overflow:visible;filter:url(#filter20296);enable-background:accumulate"
           id="path20294"
           sodipodi:cx="256"
           sodipodi:cy="256"
           sodipodi:rx="256"
           sodipodi:ry="256"
           d="M 512 256 A 256 256 0 1 1  0,256 A 256 256 0 1 1  512 256 z" />
        <path
           transform="translate(0,14.142136)"
           d="M 384 100 A 128 85 0 1 1  128,100 A 128 85 0 1 1  384 100 z"
           sodipodi:ry="85"
           sodipodi:rx="128"
           sodipodi:cy="100"
           sodipodi:cx="256"
           id="path20300"
           style="opacity:0.75;color:#000000;fill:url(#radialGradient22365);fill-opacity:1;fill-rule:evenodd;stroke:none;stroke-width:2;stroke-linecap:butt;stroke-linejoin:miter;marker:none;marker-start:none;marker-mid:none;marker-end:none;stroke-miterlimit:4;stroke-dasharray:none;stroke-dashoffset:0;stroke-opacity:1;visibility:visible;display:inline;overflow:visible;enable-background:accumulate"
           sodipodi:type="arc" />
      </g>
    </g>
  </g>
  <g
     inkscape:groupmode="layer"
     id="layer1"
     inkscape:label="putter"
     style="display:inline">
    <g
       style="display:inline"
       id="g2384"
       transform="translate(29.262195,7.7030396)">
      <g
         style="display:inline"
         inkscape:label="putter_shadow"
         id="layer2">
        <path
           id="rect6572"
           d="M 67.28125,-253.75 L 29.53125,-242.8125 L 174.6875,257.1875 L 169.1875,258.59375 C 169.18749,258.59375 191.12569,326.96589 192,349.84375 C 193.54822,390.3557 183.23213,417.33253 160.5,416.3125 C 138.34954,415.31856 102.03077,379.30073 77.5,372.65625 C 53.012248,366.0234 22.481391,396.70699 15.625,424.78125 C 13.132646,434.98646 15.72701,444.44028 19.65625,453.75 C 33.942707,487.59954 117.16772,547.60891 293.25,546.34375 C 500.2178,544.85666 529.96449,471.75994 541.84375,445.0625 C 554.42069,416.79711 542.68484,367.32798 512.8125,356.46875 C 494.65633,349.86859 448.36423,361.97698 421.40625,372.46875 C 394.13001,383.08437 357.48031,395.0411 319.15625,394.3125 C 281.41507,393.58391 257.79304,361.39858 246.28125,338.375 C 234.88365,315.57979 217.15625,246.28125 217.15625,246.28125 L 212.78125,247.40625 L 67.28125,-253.75 z "
           style="opacity:1;color:#000000;fill:#000000;fill-opacity:1;fill-rule:evenodd;stroke:none;stroke-width:1px;stroke-linecap:butt;stroke-linejoin:miter;marker:none;marker-start:none;marker-mid:none;marker-end:none;stroke-miterlimit:4;stroke-dasharray:none;stroke-dashoffset:0;stroke-opacity:1;visibility:visible;display:inline;overflow:visible;filter:url(#filter3406);enable-background:accumulate" />
      </g>
      <g
         style="display:inline"
         id="layer5">
        <rect
           inkscape:transform-center-x="86.466158"
           inkscape:transform-center-y="-254.69234"
           transform="matrix(-0.9603445,0.2788162,-0.2788162,-0.9603445,0,0)"
           y="-312.4624"
           x="-135.3774"
           height="537.40112"
           width="39.325901"
           id="rect11122"
           style="opacity:1;color:#000000;fill:url(#linearGradient2411);fill-opacity:1;fill-rule:evenodd;stroke:none;stroke-width:1px;stroke-linecap:butt;stroke-linejoin:miter;marker:none;marker-start:none;marker-mid:none;marker-end:none;stroke-miterlimit:4;stroke-dasharray:none;stroke-dashoffset:0;stroke-opacity:1;visibility:visible;display:inline;overflow:visible;enable-background:accumulate" />
        <path
           sodipodi:nodetypes="csszzzccszzssz"
           id="path1564"
           d="M 293.2478,546.3383 C 500.2156,544.85123 529.95435,471.76987 541.83361,445.07243 C 554.41056,416.80703 542.69323,367.33921 512.82089,356.47998 C 494.66469,349.87982 448.35597,361.9697 421.39799,372.46147 C 394.12174,383.07708 357.47524,395.05291 319.15118,394.32431 C 281.41,393.59572 257.80355,361.39186 246.29176,338.36828 C 234.89416,315.57308 217.14799,246.27398 217.14799,246.27398 L 169.17547,258.59998 C 169.17547,258.59998 191.11343,326.97668 191.98774,349.85454 C 193.53597,390.3665 183.2446,417.32236 160.51247,416.30233 C 138.36201,415.3084 102.03622,379.28802 77.505453,372.64354 C 53.017703,366.0107 22.48408,396.70378 15.627689,424.77804 C 13.135335,434.98326 15.725652,444.44459 19.654892,453.75431 C 33.941349,487.60384 117.16552,547.60346 293.2478,546.3383 z "
           style="opacity:1;fill:#595959;fill-opacity:1;fill-rule:evenodd;stroke:none;stroke-width:1px;stroke-linecap:butt;stroke-linejoin:miter;stroke-opacity:1;display:inline" />
        <path
           clip-path="url(#clipPath6572)"
           sodipodi:nodetypes="czzzzzccszzzz"
           id="path13525"
           d="M 297.30601,541.67506 C 488.66995,540.34731 524.91492,472.60365 535.67777,453.79033 C 546.32165,435.18496 538.10349,389.8844 514.08998,382.05023 C 488.61021,373.73771 433.73476,391.4199 408.80922,400.78764 C 383.5894,410.26596 346.95457,417.58993 311.51986,416.93939 C 276.62409,416.28885 242.81276,365.03802 229.9973,332.48104 C 216.76721,298.87073 198.05076,225.25316 198.05076,225.25316 L 174.90822,230.60178 C 174.90822,230.60178 200.45742,314.92673 204.53614,334.95857 C 209.84632,361.03844 220.4809,408.20956 187.76165,432.85572 C 154.25127,458.09781 99.718104,408.7683 77.036773,402.83566 C 54.39522,396.91343 35.98035,423.45861 29.945392,448.60021 C 24.035621,473.22027 110.25809,542.97287 297.30601,541.67506 z "
           style="opacity:1;fill:url(#linearGradient2413);fill-opacity:1;fill-rule:evenodd;stroke:none;stroke-width:1px;stroke-linecap:butt;stroke-linejoin:miter;stroke-opacity:1;display:inline;filter:url(#filter3290)" />
      </g>
      <g
         style="display:inline"
         inkscape:label="putter_outline"
         id="layer6">
        <path
           sodipodi:nodetypes="csszzzccszzssz"
           id="path6570"
           d="M 293.2478,546.3383 C 500.2156,544.85123 529.95435,471.76987 541.83361,445.07243 C 554.41056,416.80703 542.69323,367.33921 512.82089,356.47998 C 494.66469,349.87982 448.35597,361.9697 421.39799,372.46147 C 394.12174,383.07708 357.47524,395.05291 319.15118,394.32431 C 281.41,393.59572 257.80355,361.39186 246.29176,338.36828 C 234.89416,315.57308 217.14799,246.27398 217.14799,246.27398 L 169.17547,258.59998 C 169.17547,258.59998 191.11343,326.97668 191.98774,349.85454 C 193.53597,390.3665 183.2446,417.32236 160.51247,416.30233 C 138.36201,415.3084 102.03622,379.28802 77.505453,372.64354 C 53.017703,366.0107 22.48408,396.70378 15.627689,424.77804 C 13.135335,434.98326 15.725652,444.44459 19.654892,453.75431 C 33.941349,487.60384 117.16552,547.60346 293.2478,546.3383 z "
           style="opacity:0.61635222;color:#000000;fill:none;fill-opacity:1;fill-rule:evenodd;stroke:#000000;stroke-width:8;stroke-linecap:butt;stroke-linejoin:miter;marker:none;marker-start:none;marker-mid:none;marker-end:none;stroke-miterlimit:4;stroke-dasharray:none;stroke-dashoffset:0;stroke-opacity:1;visibility:visible;display:inline;overflow:visible;filter:url(#filter9950);enable-background:accumulate" />
      </g>
      <path
         sodipodi:nodetypes="cssc"
         id="path25639"
         d="M 31,401.13702 C 31,401.13702 46.909278,376.13702 68,376.13702 C 99,376.13702 141.76015,428.46947 166,420.13702 C 198,409.13702 198,335.13702 173,261.13702"
         style="fill:none;fill-opacity:0.75;fill-rule:evenodd;stroke:#000000;stroke-width:2;stroke-linecap:butt;stroke-linejoin:miter;stroke-miterlimit:4;stroke-dasharray:none;stroke-opacity:1;filter:url(#filter26678)" />
      <path
         sodipodi:nodetypes="cssc"
         id="path26682"
         d="M 248,346.13702 C 248,346.13702 278.49582,393.39623 314,396.13702 C 366.08487,400.15777 485.22715,345.61663 511,358.13702 C 536.87519,370.70713 538,388.13702 538,388.13702"
         style="opacity:1;color:#000000;fill:none;fill-opacity:0.75;fill-rule:evenodd;stroke:#000000;stroke-width:2;stroke-linecap:butt;stroke-linejoin:miter;marker:none;marker-start:none;marker-mid:none;marker-end:none;stroke-miterlimit:4;stroke-dasharray:none;stroke-dashoffset:0;stroke-opacity:1;visibility:visible;display:inline;overflow:visible;filter:url(#filter26678);enable-background:accumulate" />
      <path
         clip-path="url(#clipPath6572)"
         sodipodi:nodetypes="czzzzzccszzzz"
         id="path3315"
         d="M 297.30601,541.67506 C 488.66995,540.34731 524.91492,472.60365 535.67777,453.79033 C 546.32165,435.18496 538.10349,389.8844 514.08998,382.05023 C 488.61021,373.73771 433.73476,391.4199 408.80922,400.78764 C 383.5894,410.26596 346.95457,417.58993 311.51986,416.93939 C 276.62409,416.28885 242.81276,365.03802 229.9973,332.48104 C 216.76721,298.87073 198.05076,225.25316 198.05076,225.25316 L 174.90822,230.60178 C 174.90822,230.60178 200.45742,314.92673 204.53614,334.95857 C 209.84632,361.03844 220.4809,408.20956 187.76165,432.85572 C 154.25127,458.09781 99.718104,408.7683 77.036773,402.83566 C 54.39522,396.91343 35.98035,423.45861 29.945392,448.60021 C 24.035621,473.22027 110.25809,542.97287 297.30601,541.67506 z "
         style="opacity:1;fill:url(#linearGradient2413);fill-opacity:1;fill-rule:evenodd;stroke:none;stroke-width:1px;stroke-linecap:butt;stroke-linejoin:miter;stroke-opacity:1;display:inline;filter:url(#filter3348)"
         mask="url(#mask3336)" />
    </g>
  </g>
</svg>
