# Exported from Wings 3D 0.98.22c
mtllib peg.mtl
o cylinder1
#32 vertices, 47 faces
v 6.12991e-2 0.500000 -1.21931e-2
v 6.12991e-2 0.500000 1.21932e-2
v 5.19668e-2 0.500000 3.47231e-2
v 3.47231e-2 0.500000 5.19669e-2
v 1.21931e-2 0.500000 6.12991e-2
v -1.21932e-2 0.500000 6.12991e-2
v -3.47231e-2 0.500000 5.19668e-2
v -5.19669e-2 0.500000 3.47231e-2
v -6.12991e-2 0.500000 1.21931e-2
v -6.12991e-2 0.500000 -1.21932e-2
v -5.19668e-2 0.500000 -3.47231e-2
v -3.47231e-2 0.500000 -5.19669e-2
v -1.21931e-2 0.500000 -6.12991e-2
v 1.21932e-2 0.500000 -6.12991e-2
v 3.47231e-2 0.500000 -5.19668e-2
v 5.19669e-2 0.500000 -3.47231e-2
v 6.25000e-2 0.00000e+0 -3.68629e-18
v 5.77425e-2 0.00000e+0 2.39177e-2
v 4.41942e-2 0.00000e+0 4.41942e-2
v 2.39177e-2 0.00000e+0 5.77425e-2
v -3.94689e-17 0.00000e+0 6.25000e-2
v -2.39177e-2 0.00000e+0 5.77425e-2
v -4.41942e-2 0.00000e+0 4.41942e-2
v -5.77425e-2 0.00000e+0 2.39177e-2
v -6.25000e-2 0.00000e+0 3.96750e-18
v -5.77425e-2 0.00000e+0 -2.39177e-2
v -4.41942e-2 0.00000e+0 -4.41942e-2
v -2.39177e-2 0.00000e+0 -5.77425e-2
v -5.47765e-17 0.00000e+0 -6.25000e-2
v 2.39177e-2 0.00000e+0 -5.77425e-2
v 4.41942e-2 0.00000e+0 -4.41942e-2
v 5.77425e-2 0.00000e+0 -2.39177e-2
vt 0.00000e+0 0.997608
vt 1.00389e-3 2.39064e-3
vt 8.86899e-3 0.996693
vt 9.87289e-3 1.47558e-3
vt 2.88028e-2 0.998523
vt 2.98067e-2 3.30580e-3
vt 5.40596e-2 0.995917
vt 5.50635e-2 6.99930e-4
vt 9.08926e-2 0.999299
vt 9.18965e-2 4.08173e-3
vt 0.128692 0.995399
vt 0.129696 1.81775e-4
vt 0.176817 0.999818
vt 0.177820 4.60031e-3
vt 0.221404 0.995217
vt 0.222408 0.00000e+0
vt 0.273494 1.00000
vt 0.274498 4.78259e-3
vt 0.318081 0.995400
vt 0.319085 1.82278e-4
vt 0.366206 0.999818
vt 0.367210 4.60081e-3
vt 0.404005 0.995918
vt 0.405009 7.00858e-4
vt 0.440838 0.999300
vt 0.441842 4.08266e-3
vt 0.466095 0.996694
vt 0.467099 1.47679e-3
vt 0.486029 0.998524
vt 0.487033 3.30701e-3
vt 0.494898 0.997609
vt 0.495902 2.39195e-3
vt 0.495902 0.292576
vt 0.495902 0.780646
vt 0.495902 0.683563
vt 0.495902 0.195493
vt 0.533054 0.382269
vt 0.533054 0.870339
vt 0.533054 0.593870
vt 0.533054 0.105800
vt 0.601702 0.450918
vt 0.601702 0.938988
vt 0.601702 0.525222
vt 0.601702 3.71520e-2
vt 0.691395 0.488070
vt 0.691395 0.976140
vt 0.691395 0.488070
vt 0.691395 0.00000e+0
vt 0.788478 0.488070
vt 0.788478 0.976140
vt 0.788478 0.488070
vt 0.788478 1.44911e-7
vt 0.878171 0.450918
vt 0.878171 0.938988
vt 0.878171 0.525222
vt 0.878172 3.71524e-2
vt 0.946819 0.382270
vt 0.946819 0.870340
vt 0.946820 0.593871
vt 0.946820 0.105801
vt 0.983971 0.292577
vt 0.983971 0.780647
vt 0.983972 0.683564
vt 0.983972 0.195494
vn 0.980785 8.11002e-4 -0.195090
vn 0.980785 8.11002e-4 -0.195090
vn 0.980785 8.11002e-4 -0.195090
vn 0.00000e+0 1.00000 0.00000e+0
vn 0.980785 8.11002e-4 0.195090
vn 0.980785 8.11002e-4 0.195090
vn 0.980785 8.11002e-4 0.195090
vn 0.00000e+0 1.00000 0.00000e+0
vn 0.00000e+0 1.00000 0.00000e+0
vn 0.831469 8.11002e-4 0.555570
vn 0.831469 8.11002e-4 0.555570
vn 0.831469 8.11002e-4 0.555570
vn 0.00000e+0 1.00000 0.00000e+0
vn 0.00000e+0 1.00000 0.00000e+0
vn 0.00000e+0 1.00000 0.00000e+0
vn 0.555570 8.11002e-4 0.831469
vn 0.555570 8.11002e-4 0.831469
vn 0.555570 8.11002e-4 0.831469
vn 0.00000e+0 1.00000 0.00000e+0
vn 0.00000e+0 1.00000 0.00000e+0
vn 0.00000e+0 1.00000 0.00000e+0
vn 0.195090 8.11002e-4 0.980785
vn 0.195090 8.11002e-4 0.980785
vn 0.195090 8.11002e-4 0.980785
vn 0.00000e+0 1.00000 3.86820e-16
vn 0.00000e+0 1.00000 3.86820e-16
vn 0.00000e+0 1.00000 3.86820e-16
vn -0.195090 8.11002e-4 0.980785
vn -0.195090 8.11002e-4 0.980785
vn -0.195090 8.11002e-4 0.980785
vn 0.00000e+0 1.00000 0.00000e+0
vn 0.00000e+0 1.00000 0.00000e+0
vn 0.00000e+0 1.00000 0.00000e+0
vn -0.555570 8.11002e-4 0.831469
vn -0.555570 8.11002e-4 0.831469
vn -0.555570 8.11002e-4 0.831469
vn 0.00000e+0 1.00000 0.00000e+0
vn 0.00000e+0 1.00000 0.00000e+0
vn 0.00000e+0 1.00000 0.00000e+0
vn -0.831469 8.11002e-4 0.555570
vn -0.831469 8.11002e-4 0.555570
vn -0.831469 8.11002e-4 0.555570
vn 0.00000e+0 1.00000 0.00000e+0
vn 0.00000e+0 1.00000 0.00000e+0
vn 0.00000e+0 1.00000 0.00000e+0
vn -0.980785 8.11002e-4 0.195090
vn -0.980785 8.11002e-4 0.195090
vn -0.980785 8.11002e-4 0.195090
vn 0.00000e+0 1.00000 0.00000e+0
vn -0.980785 8.11002e-4 -0.195090
vn -0.980785 8.11002e-4 -0.195090
vn -0.980785 8.11002e-4 -0.195090
vn 0.00000e+0 1.00000 0.00000e+0
vn 0.00000e+0 1.00000 0.00000e+0
vn -0.831469 8.11002e-4 -0.555570
vn -0.831469 8.11002e-4 -0.555570
vn -0.831469 8.11002e-4 -0.555570
vn 0.00000e+0 1.00000 0.00000e+0
vn 0.00000e+0 1.00000 0.00000e+0
vn 0.00000e+0 1.00000 0.00000e+0
vn -0.555570 8.11002e-4 -0.831469
vn -0.555570 8.11002e-4 -0.831469
vn -0.555570 8.11002e-4 -0.831469
vn 0.00000e+0 1.00000 0.00000e+0
vn 0.00000e+0 1.00000 0.00000e+0
vn 0.00000e+0 1.00000 0.00000e+0
vn -0.195090 8.11002e-4 -0.980785
vn -0.195090 8.11002e-4 -0.980785
vn -0.195090 8.11002e-4 -0.980785
vn 0.00000e+0 1.00000 3.86820e-16
vn 0.00000e+0 1.00000 3.86820e-16
vn 0.00000e+0 1.00000 3.86820e-16
vn 0.195090 8.11002e-4 -0.980785
vn 0.195090 8.11002e-4 -0.980785
vn 0.195090 8.11002e-4 -0.980785
vn 0.00000e+0 1.00000 3.86820e-16
vn 0.00000e+0 1.00000 3.86820e-16
vn 0.00000e+0 1.00000 3.86820e-16
vn 0.555570 8.11002e-4 -0.831469
vn 0.555570 8.11002e-4 -0.831469
vn 0.555570 8.11002e-4 -0.831469
vn 0.00000e+0 1.00000 0.00000e+0
vn 0.00000e+0 1.00000 0.00000e+0
vn 0.00000e+0 1.00000 0.00000e+0
vn 0.831469 8.11002e-4 -0.555570
vn 0.831469 8.11002e-4 -0.555570
vn 0.831469 8.11002e-4 -0.555570
vn 0.00000e+0 1.00000 0.00000e+0
vn 0.00000e+0 1.00000 0.00000e+0
vn 0.00000e+0 1.00000 0.00000e+0
vn 0.00000e+0 -1.00000 0.00000e+0
vn 1.000000 -8.11002e-4 5.60005e-8
vn 1.000000 -8.11002e-4 5.60005e-8
vn 1.000000 -8.11002e-4 5.60005e-8
vn 0.00000e+0 -1.00000 0.00000e+0
vn 0.923879 -8.11002e-4 0.382683
vn 0.923879 -8.11002e-4 0.382683
vn 0.923879 -8.11002e-4 0.382683
vn 0.00000e+0 -1.00000 0.00000e+0
vn 0.707107 -8.11002e-4 0.707107
vn 0.707107 -8.11002e-4 0.707107
vn 0.707107 -8.11002e-4 0.707107
vn 0.00000e+0 -1.00000 0.00000e+0
vn 0.382683 -8.11002e-4 0.923879
vn 0.382683 -8.11002e-4 0.923879
vn 0.382683 -8.11002e-4 0.923879
vn 0.00000e+0 -1.00000 0.00000e+0
vn -5.60005e-8 -8.11002e-4 1.000000
vn -5.60005e-8 -8.11002e-4 1.000000
vn -5.60005e-8 -8.11002e-4 1.000000
vn 0.00000e+0 -1.00000 0.00000e+0
vn -0.382683 -8.11002e-4 0.923879
vn -0.382683 -8.11002e-4 0.923879
vn -0.382683 -8.11002e-4 0.923879
vn 0.00000e+0 -1.00000 0.00000e+0
vn -0.707107 -8.11002e-4 0.707107
vn -0.707107 -8.11002e-4 0.707107
vn -0.707107 -8.11002e-4 0.707107
vn 0.00000e+0 -1.00000 0.00000e+0
vn -0.923879 -8.11002e-4 0.382683
vn -0.923879 -8.11002e-4 0.382683
vn -0.923879 -8.11002e-4 0.382683
vn 0.00000e+0 -1.00000 0.00000e+0
vn -1.000000 -8.11002e-4 -5.60005e-8
vn -1.000000 -8.11002e-4 -5.60005e-8
vn -1.000000 -8.11002e-4 -5.60005e-8
vn 0.00000e+0 -1.00000 0.00000e+0
vn -0.923879 -8.11002e-4 -0.382683
vn -0.923879 -8.11002e-4 -0.382683
vn -0.923879 -8.11002e-4 -0.382683
vn 0.00000e+0 -1.00000 0.00000e+0
vn -0.707107 -8.11002e-4 -0.707107
vn -0.707107 -8.11002e-4 -0.707107
vn -0.707107 -8.11002e-4 -0.707107
vn 0.00000e+0 -1.00000 0.00000e+0
vn -0.382683 -8.11002e-4 -0.923879
vn -0.382683 -8.11002e-4 -0.923879
vn -0.382683 -8.11002e-4 -0.923879
vn 0.00000e+0 -1.00000 0.00000e+0
vn 5.60005e-8 -8.11002e-4 -1.000000
vn 5.60005e-8 -8.11002e-4 -1.000000
vn 5.60005e-8 -8.11002e-4 -1.000000
vn 0.00000e+0 -1.00000 0.00000e+0
vn 0.382683 -8.11002e-4 -0.923879
vn 0.382683 -8.11002e-4 -0.923879
vn 0.382683 -8.11002e-4 -0.923879
vn 0.00000e+0 -1.00000 0.00000e+0
vn 0.707107 -8.11002e-4 -0.707107
vn 0.707107 -8.11002e-4 -0.707107
vn 0.707107 -8.11002e-4 -0.707107
vn 0.00000e+0 -1.00000 0.00000e+0
vn 0.923879 -8.11002e-4 -0.382683
vn 0.923879 -8.11002e-4 -0.382683
vn 0.923879 -8.11002e-4 -0.382683
g cylinder1_mtrl/chrome
usemtl mtrl/chrome
f 1/48/4 16/52/89 2/44/9
f 1/2/2 32/5/154 16/6/86
f 2/44/8 16/52/88 3/40/13
f 2/4/7 17/1/94 1/2/3
f 3/40/14 15/56/82 4/36/19
f 3/8/12 18/3/98 2/4/6
f 4/36/20 14/60/76 5/33/25
f 4/12/18 19/7/102 3/8/11
f 5/33/26 13/64/70 6/37/31
f 5/16/24 20/11/106 4/12/17
f 6/37/32 12/61/64 7/41/37
f 6/20/30 21/15/110 5/16/23
f 7/41/38 11/57/58 8/45/43
f 7/24/36 22/19/114 6/20/29
f 8/45/45 10/53/54 9/49/49
f 8/28/42 23/23/118 7/24/35
f 9/32/48 24/27/122 8/28/41
f 10/53/53 8/45/44 11/57/59
f 10/30/52 25/31/126 9/32/47
f 11/57/60 7/41/39 12/61/66
f 11/26/57 26/29/130 10/30/51
f 12/61/65 6/37/33 13/64/72
f 12/22/63 27/25/134 11/26/56
f 13/64/71 5/33/27 14/60/78
f 13/18/69 28/21/138 12/22/62
f 14/60/77 4/36/21 15/56/84
f 14/14/75 29/17/142 13/18/68
f 15/56/83 3/40/15 16/52/90
f 15/10/81 30/13/146 14/14/74
f 16/6/87 31/9/150 15/10/80
f 17/1/92 32/5/152 1/2/1
f 18/3/97 17/1/93 2/4/5
f 19/7/101 18/3/96 3/8/10
f 20/11/105 19/7/100 4/12/16
f 21/15/109 20/11/104 5/16/22
f 22/19/113 21/15/108 6/20/28
f 23/23/117 22/19/112 7/24/34
f 24/27/121 23/23/116 8/28/40
f 25/31/125 24/27/120 9/32/46
f 26/29/129 25/31/124 10/30/50
f 27/25/133 26/29/128 11/26/55
f 28/21/137 27/25/132 12/22/61
f 29/17/141 28/21/136 13/18/67
f 30/13/145 29/17/140 14/14/73
f 31/9/149 30/13/144 15/10/79
f 32/5/153 31/9/148 16/6/85
g cylinder1_mtrl/invisible
usemtl mtrl/invisible
f 18/55/95 19/59/99 20/63/103 21/62/107 22/58/111 23/54/115 24/50/119 25/46/123 26/42/127 27/38/131 28/34/135 29/35/139 30/39/143 31/43/147 32/47/151 17/51/91
