# Exported from Wings 3D 0.98.22c
mtllib platform.mtl
o cube1
#88 vertices, 172 faces
v -1.00000 -0.250000 1.00000
v -1.00000 0.00000e+0 1.00000
v 1.00000 0.00000e+0 1.00000
v 1.00000 -0.250000 1.00000
v -1.00000 -0.250000 -1.00000
v -1.00000 0.00000e+0 -1.00000
v 1.00000 0.00000e+0 -1.00000
v 1.00000 -0.250000 -1.00000
v -1.00000 -0.222663 1.00000
v -1.00000 -2.73374e-2 1.00000
v 1.00000 -2.73374e-2 1.00000
v 1.00000 -0.222663 1.00000
v -1.00000 -0.222663 -1.00000
v -1.00000 -2.73374e-2 -1.00000
v 1.00000 -2.73374e-2 -1.00000
v 1.00000 -0.222663 -1.00000
v -0.800908 0.00000e+0 -0.800908
v -0.800908 0.00000e+0 0.800908
v 0.800908 0.00000e+0 0.800908
v 0.800908 0.00000e+0 -0.800908
v 0.982000 -0.107379 -0.956641
v 0.986188 -7.48763e-2 -0.966730
v 0.986188 -7.48763e-2 0.966730
v 0.982000 -0.107379 0.956641
v 0.982000 -0.142621 0.956641
v 0.986188 -0.175124 0.966730
v 0.982000 -0.142621 -0.956641
v 0.986188 -0.175124 -0.966730
v 0.966730 -0.175124 -0.986188
v 0.956641 -0.142621 -0.982000
v -0.966730 -0.175124 -0.986188
v -0.956641 -0.142621 -0.982000
v -0.956641 -0.107379 -0.982000
v -0.966730 -7.48763e-2 -0.986188
v 0.956641 -0.107379 -0.982000
v 0.966730 -7.48763e-2 -0.986188
v 0.966730 -7.48763e-2 0.986188
v 0.956641 -0.107379 0.982000
v -0.966730 -7.48763e-2 0.986188
v -0.956641 -0.107379 0.982000
v -0.956641 -0.142621 0.982000
v -0.966730 -0.175124 0.986188
v 0.956641 -0.142621 0.982000
v 0.966730 -0.175124 0.986188
v -0.986188 -0.175124 -0.966730
v -0.982000 -0.142621 -0.956641
v -0.982000 -0.142621 0.956641
v -0.986188 -0.175124 0.966730
v -0.986188 -7.48763e-2 0.966730
v -0.982000 -0.107379 0.956641
v -0.982000 -0.107379 -0.956641
v -0.986188 -7.48763e-2 -0.966730
v 0.00000e+0 -0.250000 1.00000
v -1.00000 -0.250000 0.00000e+0
v 0.00000e+0 0.00000e+0 1.00000
v -1.00000 0.00000e+0 0.00000e+0
v 1.00000 0.00000e+0 0.00000e+0
v 1.00000 -0.250000 0.00000e+0
v 0.00000e+0 -0.250000 -1.00000
v 0.00000e+0 0.00000e+0 -1.00000
v 1.00000 -0.222663 0.00000e+0
v 0.00000e+0 -2.73374e-2 -1.00000
v -1.00000 -0.222663 0.00000e+0
v -1.00000 -2.73374e-2 0.00000e+0
v 1.00000 -2.73374e-2 0.00000e+0
v 0.00000e+0 -2.73374e-2 1.00000
v 0.00000e+0 -0.222663 -1.00000
v 0.00000e+0 -0.222663 1.00000
v 0.00000e+0 0.00000e+0 -0.800908
v 0.00000e+0 0.00000e+0 0.800908
v -0.800908 0.00000e+0 0.00000e+0
v 0.800908 0.00000e+0 0.00000e+0
v 0.00000e+0 -0.107379 -0.982000
v 0.00000e+0 -7.48763e-2 -0.986188
v -0.982000 -0.142621 0.00000e+0
v 0.00000e+0 -0.175124 0.986188
v 0.00000e+0 -0.107379 0.982000
v 0.00000e+0 -0.142621 -0.982000
v -0.986188 -7.48763e-2 0.00000e+0
v 0.00000e+0 -0.142621 0.982000
v -0.982000 -0.107379 0.00000e+0
v 0.00000e+0 -0.175124 -0.986188
v 0.986188 -0.175124 0.00000e+0
v 0.986188 -7.48763e-2 0.00000e+0
v 0.00000e+0 -7.48763e-2 0.986188
v 0.982000 -0.142621 0.00000e+0
v 0.982000 -0.107379 0.00000e+0
v -0.986188 -0.175124 0.00000e+0
vt -1.52106e-2 0.490114
vt -1.37759e-2 0.480779
vt -5.49108e-3 0.471003
vt -3.75289e-3 0.415565
vt -3.35910e-3 0.473375
vt -2.38119e-3 0.406640
vt 1.82733e-3 0.422977
vt 3.91675e-3 0.425480
vt 5.10064e-3 0.445807
vt 6.25409e-3 0.438098
vt 8.18985e-3 0.458327
vt 9.32203e-3 0.450683
vt 3.51558e-2 3.51558e-2
vt 3.51558e-2 0.500000
vt 3.51558e-2 0.964844
vt 0.127703 0.127703
vt 0.127703 0.500000
vt 0.127703 0.872297
vt 0.232126 0.556165
vt 0.232863 0.548089
vt 0.237053 0.540451
vt 0.238016 0.491511
vt 0.238722 0.483747
vt 0.240802 0.498826
vt 0.241829 0.526144
vt 0.242416 0.519477
vt 0.265946 0.354905
vt 0.266558 0.343340
vt 0.267487 0.335555
vt 0.269447 0.309020
vt 0.269962 0.299644
vt 0.270660 0.276733
vt 0.270843 0.263197
vt 0.271431 0.252315
vt 0.475469 0.593962
vt 0.475509 0.588270
vt 0.477466 0.607526
vt 0.477688 0.572172
vt 0.479463 0.622216
vt 0.479503 0.615399
vt 0.479785 0.567458
vt 0.479824 0.560853
vt 0.482069 0.607594
vt 0.482261 0.572244
vt 0.484661 0.594100
vt 0.484686 0.588410
vt 0.500000 3.51558e-2
vt 0.500000 0.127703
vt 0.500000 0.872297
vt 0.500000 0.964844
vt 0.533670 0.161191
vt 0.533793 0.172232
vt 0.539493 0.130489
vt 0.540465 0.200107
vt 0.545243 9.79897e-2
vt 0.545439 0.110828
vt 0.546892 0.205901
vt 0.547103 0.219695
vt 0.549510 0.130837
vt 0.550629 0.200440
vt 0.553777 0.161880
vt 0.553973 0.172913
vt 0.727124 0.529588
vt 0.727631 0.536118
vt 0.728562 0.509548
vt 0.730404 0.494964
vt 0.731014 0.502568
vt 0.731799 0.550292
vt 0.735461 0.557937
vt 0.736097 0.565835
vt 0.763114 0.263532
vt 0.763488 0.287695
vt 0.763764 0.310369
vt 0.763840 0.274253
vt 0.764392 0.319601
vt 0.767402 0.345627
vt 0.769156 0.353188
vt 0.769917 0.364575
vt 0.872297 0.127703
vt 0.872297 0.500000
vt 0.872297 0.872297
vt 0.964844 3.51558e-2
vt 0.964844 0.500000
vt 0.964844 0.964844
vt 0.969562 0.470766
vt 0.970601 0.478136
vt 0.973752 0.458858
vt 0.974812 0.466289
vt 0.974864 0.446852
vt 0.977467 0.444552
vt 0.980984 0.429075
vt 0.981529 0.492990
vt 0.982242 0.437677
vt 0.984176 0.490813
vt 0.991419 0.500475
vt 0.992732 0.509455
vn 0.00000e+0 1.00000 0.00000e+0
vn 0.00000e+0 1.00000 0.00000e+0
vn 0.00000e+0 1.00000 0.00000e+0
vn 0.00000e+0 1.00000 0.00000e+0
vn 0.949461 -9.21259e-2 -0.300061
vn 0.884344 -0.308740 -0.350164
vn 0.912395 -0.305305 0.272626
vn 0.895732 -0.112196 0.430204
vn 0.946497 0.119717 0.299686
vn 0.875301 0.334903 0.348838
vn 0.893308 0.131913 -0.429651
vn 0.901636 0.336702 -0.271448
vn 0.348838 0.334903 -0.875301
vn 0.299686 0.119717 -0.946497
vn -0.271448 0.336702 -0.901636
vn -0.429651 0.131913 -0.893308
vn -0.300061 -9.21259e-2 -0.949461
vn -0.350164 -0.308740 -0.884344
vn 0.430204 -0.112196 -0.895732
vn 0.272626 -0.305305 -0.912395
vn 0.350164 -0.308740 0.884344
vn 0.300061 -9.21259e-2 0.949461
vn -0.272626 -0.305305 0.912395
vn -0.430204 -0.112196 0.895732
vn -0.299686 0.119717 0.946497
vn -0.348838 0.334903 0.875301
vn 0.429651 0.131913 0.893308
vn 0.271448 0.336702 0.901636
vn -0.875301 0.334903 -0.348838
vn -0.946497 0.119717 -0.299686
vn -0.893308 0.131913 0.429651
vn -0.901636 0.336702 0.271448
vn -0.884344 -0.308740 0.350164
vn -0.949461 -9.21259e-2 0.300061
vn -0.895732 -0.112196 -0.430204
vn -0.912395 -0.305305 -0.272626
vn 0.00000e+0 1.00000 0.00000e+0
vn 0.00000e+0 1.00000 0.00000e+0
vn 0.00000e+0 1.00000 0.00000e+0
vn 0.00000e+0 1.00000 0.00000e+0
vn 6.42363e-17 -8.53574e-2 -0.996350
vn -2.02209e-18 -0.229208 -0.973377
vn -0.999089 4.26787e-2 0.00000e+0
vn -8.00331e-18 0.178675 0.983908
vn 6.42363e-17 -8.53574e-2 0.996350
vn -7.79600e-18 4.26787e-2 -0.999089
vn -0.973377 -0.229208 0.00000e+0
vn -7.79600e-18 4.26787e-2 0.999089
vn -0.996350 -8.53574e-2 0.00000e+0
vn -8.00331e-18 0.178675 -0.983908
vn 0.983908 0.178675 0.00000e+0
vn 0.973377 -0.229208 0.00000e+0
vn -2.02209e-18 -0.229208 0.973377
vn 0.999089 4.26787e-2 0.00000e+0
vn 0.996350 -8.53574e-2 0.00000e+0
vn -0.983908 0.178675 0.00000e+0
vn -1.00000 0.00000e+0 0.00000e+0
vn 0.00000e+0 -1.00000 0.00000e+0
vn 0.00000e+0 0.00000e+0 1.00000
vn -1.00000 0.00000e+0 0.00000e+0
vn 0.00000e+0 1.00000 0.00000e+0
vn 0.00000e+0 0.00000e+0 1.00000
vn -1.00000 0.00000e+0 0.00000e+0
vn 0.00000e+0 1.00000 0.00000e+0
vn 0.00000e+0 0.00000e+0 1.00000
vn 1.00000 0.00000e+0 0.00000e+0
vn 0.00000e+0 0.00000e+0 1.00000
vn 0.00000e+0 1.00000 0.00000e+0
vn 1.00000 0.00000e+0 0.00000e+0
vn 0.00000e+0 1.00000 0.00000e+0
vn 0.00000e+0 0.00000e+0 1.00000
vn 0.00000e+0 0.00000e+0 1.00000
vn 0.00000e+0 -1.00000 0.00000e+0
vn 1.00000 0.00000e+0 0.00000e+0
vn 0.00000e+0 -1.00000 0.00000e+0
vn 0.00000e+0 0.00000e+0 -1.00000
vn -1.00000 0.00000e+0 0.00000e+0
vn 0.00000e+0 1.00000 0.00000e+0
vn 0.00000e+0 0.00000e+0 -1.00000
vn -1.00000 0.00000e+0 0.00000e+0
vn 0.00000e+0 1.00000 0.00000e+0
vn 0.00000e+0 0.00000e+0 -1.00000
vn -1.00000 0.00000e+0 0.00000e+0
vn 0.00000e+0 0.00000e+0 -1.00000
vn 0.00000e+0 1.00000 0.00000e+0
vn 0.00000e+0 0.00000e+0 -1.00000
vn 1.00000 0.00000e+0 0.00000e+0
vn 0.00000e+0 1.00000 0.00000e+0
vn 1.00000 0.00000e+0 0.00000e+0
vn 0.00000e+0 -1.00000 0.00000e+0
vn 0.00000e+0 0.00000e+0 -1.00000
vn 1.00000 0.00000e+0 0.00000e+0
vn -0.627416 0.461192 0.627416
vn -1.00000 0.00000e+0 0.00000e+0
vn -0.627416 0.461192 0.627416
vn 0.00000e+0 0.00000e+0 1.00000
vn -1.00000 0.00000e+0 0.00000e+0
vn -0.627416 0.461192 0.627416
vn 0.00000e+0 0.00000e+0 1.00000
vn -0.637985 -0.431219 0.637985
vn -1.00000 0.00000e+0 0.00000e+0
vn -0.637985 -0.431219 0.637985
vn -0.637985 -0.431219 0.637985
vn -0.637985 -0.431219 0.637985
vn -0.637985 -0.431219 0.637985
vn 0.00000e+0 0.00000e+0 1.00000
vn 0.637985 -0.431219 0.637985
vn 0.637985 -0.431219 0.637985
vn 0.637985 -0.431219 0.637985
vn 0.00000e+0 0.00000e+0 1.00000
vn 1.00000 0.00000e+0 0.00000e+0
vn 0.637985 -0.431219 0.637985
vn 0.637985 -0.431219 0.637985
vn 0.627416 0.461192 0.627416
vn 1.00000 0.00000e+0 0.00000e+0
vn 0.627416 0.461192 0.627416
vn 0.00000e+0 0.00000e+0 1.00000
vn 0.627416 0.461192 0.627416
vn 1.00000 0.00000e+0 0.00000e+0
vn 0.00000e+0 0.00000e+0 1.00000
vn -0.627416 0.461192 -0.627416
vn 0.00000e+0 0.00000e+0 -1.00000
vn -1.00000 0.00000e+0 0.00000e+0
vn 0.00000e+0 0.00000e+0 -1.00000
vn -0.627416 0.461192 -0.627416
vn -0.627416 0.461192 -0.627416
vn -1.00000 0.00000e+0 0.00000e+0
vn -0.637985 -0.431219 -0.637985
vn -0.637985 -0.431219 -0.637985
vn -0.637985 -0.431219 -0.637985
vn -0.637985 -0.431219 -0.637985
vn 0.00000e+0 0.00000e+0 -1.00000
vn -1.00000 0.00000e+0 0.00000e+0
vn -0.637985 -0.431219 -0.637985
vn 0.637985 -0.431219 -0.637985
vn 0.637985 -0.431219 -0.637985
vn 0.637985 -0.431219 -0.637985
vn 0.637985 -0.431219 -0.637985
vn 0.00000e+0 0.00000e+0 -1.00000
vn 0.637985 -0.431219 -0.637985
vn 1.00000 0.00000e+0 0.00000e+0
vn 0.627416 0.461192 -0.627416
vn 0.00000e+0 0.00000e+0 -1.00000
vn 0.627416 0.461192 -0.627416
vn 0.00000e+0 0.00000e+0 -1.00000
vn 1.00000 0.00000e+0 0.00000e+0
vn 0.627416 0.461192 -0.627416
vn 1.00000 0.00000e+0 0.00000e+0
vn 0.00000e+0 -1.00000 0.00000e+0
vn 0.00000e+0 0.00000e+0 1.00000
vn 0.00000e+0 -1.00000 0.00000e+0
vn 0.00000e+0 -1.00000 0.00000e+0
vn 0.00000e+0 0.00000e+0 1.00000
vn 0.00000e+0 -1.00000 0.00000e+0
vn 0.00000e+0 0.00000e+0 1.00000
vn 0.00000e+0 0.00000e+0 1.00000
vn -1.00000 0.00000e+0 0.00000e+0
vn 0.00000e+0 -1.00000 0.00000e+0
vn 0.00000e+0 -1.00000 0.00000e+0
vn 0.00000e+0 -1.00000 0.00000e+0
vn -1.00000 0.00000e+0 0.00000e+0
vn -1.00000 0.00000e+0 0.00000e+0
vn -1.00000 0.00000e+0 0.00000e+0
vn 0.00000e+0 1.00000 0.00000e+0
vn 0.00000e+0 1.00000 0.00000e+0
vn 0.00000e+0 0.00000e+0 1.00000
vn 0.00000e+0 1.00000 0.00000e+0
vn 0.00000e+0 0.00000e+0 1.00000
vn 0.00000e+0 1.00000 0.00000e+0
vn 0.00000e+0 1.00000 0.00000e+0
vn 0.00000e+0 1.00000 0.00000e+0
vn -1.00000 0.00000e+0 0.00000e+0
vn 0.00000e+0 1.00000 0.00000e+0
vn -1.00000 0.00000e+0 0.00000e+0
vn 0.00000e+0 1.00000 0.00000e+0
vn 1.00000 0.00000e+0 0.00000e+0
vn 0.00000e+0 1.00000 0.00000e+0
vn 0.00000e+0 1.00000 0.00000e+0
vn 0.00000e+0 1.00000 0.00000e+0
vn 1.00000 0.00000e+0 0.00000e+0
vn 0.00000e+0 1.00000 0.00000e+0
vn 1.00000 0.00000e+0 0.00000e+0
vn 0.00000e+0 -1.00000 0.00000e+0
vn 0.00000e+0 -1.00000 0.00000e+0
vn 1.00000 0.00000e+0 0.00000e+0
vn 0.00000e+0 -1.00000 0.00000e+0
vn 1.00000 0.00000e+0 0.00000e+0
vn 1.00000 0.00000e+0 0.00000e+0
vn 0.00000e+0 -1.00000 0.00000e+0
vn 0.00000e+0 0.00000e+0 -1.00000
vn 0.00000e+0 -1.00000 0.00000e+0
vn 0.00000e+0 -1.00000 0.00000e+0
vn 0.00000e+0 0.00000e+0 -1.00000
vn 0.00000e+0 -1.00000 0.00000e+0
vn 0.00000e+0 0.00000e+0 -1.00000
vn 0.00000e+0 0.00000e+0 -1.00000
vn 0.00000e+0 1.00000 0.00000e+0
vn 0.00000e+0 0.00000e+0 -1.00000
vn 0.00000e+0 1.00000 0.00000e+0
vn 0.00000e+0 0.00000e+0 -1.00000
vn 0.00000e+0 1.00000 0.00000e+0
vn 0.00000e+0 1.00000 0.00000e+0
vn 0.960292 0.278999 0.00000e+0
vn 1.00000 0.00000e+0 0.00000e+0
vn 0.960292 0.278999 0.00000e+0
vn 0.960292 0.278999 0.00000e+0
vn 1.00000 0.00000e+0 0.00000e+0
vn 0.960292 0.278999 0.00000e+0
vn 0.00000e+0 -0.278999 -0.960292
vn 0.00000e+0 0.00000e+0 -1.00000
vn 0.00000e+0 -0.278999 -0.960292
vn 0.00000e+0 0.00000e+0 -1.00000
vn 0.00000e+0 0.00000e+0 -1.00000
vn 0.00000e+0 0.00000e+0 -1.00000
vn -0.960292 0.278999 0.00000e+0
vn -0.960292 0.278999 0.00000e+0
vn -1.00000 0.00000e+0 0.00000e+0
vn -0.960292 0.278999 0.00000e+0
vn -1.00000 0.00000e+0 0.00000e+0
vn -0.960292 0.278999 0.00000e+0
vn -1.00000 0.00000e+0 0.00000e+0
vn -1.00000 0.00000e+0 0.00000e+0
vn -0.960292 -0.278999 0.00000e+0
vn -1.00000 0.00000e+0 0.00000e+0
vn -0.960292 -0.278999 0.00000e+0
vn -1.00000 0.00000e+0 0.00000e+0
vn 1.00000 0.00000e+0 0.00000e+0
vn 0.960292 -0.278999 0.00000e+0
vn 0.960292 -0.278999 0.00000e+0
vn 1.00000 0.00000e+0 0.00000e+0
vn 1.00000 0.00000e+0 0.00000e+0
vn 1.00000 0.00000e+0 0.00000e+0
vn 0.00000e+0 0.00000e+0 1.00000
vn 0.00000e+0 -0.278999 0.960292
vn 0.00000e+0 0.00000e+0 1.00000
vn 0.00000e+0 -0.278999 0.960292
vn 0.00000e+0 0.00000e+0 1.00000
vn 0.00000e+0 0.00000e+0 1.00000
vn -4.00513e-18 0.278999 -0.960292
vn 0.00000e+0 0.00000e+0 -1.00000
vn -4.00513e-18 0.278999 -0.960292
vn 0.00000e+0 0.00000e+0 -1.00000
vn -4.00513e-18 0.278999 -0.960292
vn -4.00513e-18 0.278999 -0.960292
vn -4.00513e-18 0.278999 0.960292
vn -4.00513e-18 0.278999 0.960292
vn 0.00000e+0 0.00000e+0 1.00000
vn -4.00513e-18 0.278999 0.960292
vn 0.00000e+0 0.00000e+0 1.00000
vn -4.00513e-18 0.278999 0.960292
g cube1_mtrl/chrome
usemtl mtrl/chrome
f 1/6/58 54/23/160 53/34/152
f 4/55/73 53/34/151 58/71/183
f 9/4/93 42/7/26 48/8/32
f 10/2/102 79/21/47 49/5/33
f 10/2/103 85/29/53 66/28/234
f 11/57/107 37/54/21 23/60/7
f 11/57/109 84/76/52 65/77/228
f 11/57/108 85/29/53 37/54/21
f 13/41/121 45/38/29 31/44/15
f 14/40/129 74/68/42 34/43/18
f 14/40/131 79/21/47 64/20/225
f 15/95/135 22/94/6 36/92/20
f 15/95/136 74/68/42 62/69/209
f 15/95/140 84/76/52 22/94/6
f 21/88/5 35/86/19 22/94/6
f 21/88/5 86/73/54 27/87/11
f 22/94/6 87/75/55 21/88/5
f 23/60/7 37/54/21 24/62/8
f 23/60/7 84/76/52 11/57/113
f 23/60/7 87/75/55 84/76/52
f 24/62/8 43/51/27 25/61/9
f 24/62/8 86/73/54 87/75/55
f 24/62/8 87/75/55 23/60/7
f 25/61/9 43/51/27 26/59/10
f 25/61/9 83/72/51 86/73/54
f 25/61/9 86/73/54 24/62/8
f 26/59/10 44/53/28 12/56/114
f 26/59/10 61/74/203 83/72/51
f 26/59/10 83/72/51 25/61/9
f 27/87/11 35/86/19 21/88/5
f 27/87/11 83/72/51 28/90/12
f 28/90/12 29/89/13 27/87/11
f 28/90/12 61/74/208 16/93/147
f 29/89/13 28/90/12 16/93/142
f 29/89/13 67/67/239 82/65/50
f 29/89/13 82/65/50 30/85/14
f 30/85/14 27/87/11 29/89/13
f 30/85/14 78/63/46 35/86/19
f 30/85/14 82/65/50 78/63/46
f 31/44/15 45/38/29 32/46/16
f 31/44/15 67/67/244 13/41/125
f 32/46/16 51/35/35 33/45/17
f 32/46/16 82/65/50 31/44/15
f 33/45/17 51/35/35 34/43/18
f 33/45/17 78/63/46 32/46/16
f 34/43/18 52/37/36 14/40/128
f 34/43/18 73/64/41 33/45/17
f 35/86/19 27/87/11 30/85/14
f 35/86/19 73/64/41 36/92/20
f 35/86/19 78/63/46 73/64/41
f 36/92/20 22/94/6 35/86/19
f 36/92/20 73/64/41 74/68/42
f 36/92/20 74/68/42 15/95/138
f 37/54/21 77/30/45 38/52/22
f 38/52/22 24/62/8 37/54/21
f 38/52/22 80/31/48 43/51/27
f 39/3/23 49/5/33 40/9/24
f 39/3/23 77/30/45 85/29/53
f 39/3/23 85/29/53 10/2/105
f 40/9/24 47/12/31 41/10/25
f 40/9/24 77/30/45 39/3/23
f 40/9/24 80/31/48 77/30/45
f 41/10/25 47/12/31 42/7/26
f 41/10/25 76/32/44 80/31/48
f 41/10/25 80/31/48 40/9/24
f 42/7/26 68/33/246 76/32/44
f 42/7/26 76/32/44 41/10/25
f 43/51/27 24/62/8 38/52/22
f 43/51/27 76/32/44 44/53/28
f 44/53/28 26/59/10 43/51/27
f 44/53/28 68/33/245 12/56/116
f 45/38/29 63/22/216 88/24/56
f 45/38/29 88/24/56 46/36/30
f 46/36/30 32/46/16 45/38/29
f 46/36/30 75/26/43 51/35/35
f 46/36/30 88/24/56 75/26/43
f 47/12/31 40/9/24 50/11/34
f 47/12/31 88/24/56 48/8/32
f 48/8/32 42/7/26 47/12/31
f 48/8/32 63/22/215 9/4/95
f 49/5/33 39/3/23 10/2/100
f 49/5/33 81/25/49 50/11/34
f 50/11/34 40/9/24 49/5/33
f 50/11/34 75/26/43 47/12/31
f 51/35/35 32/46/16 46/36/30
f 51/35/35 75/26/43 81/25/49
f 51/35/35 81/25/49 52/37/36
f 52/37/36 34/43/18 51/35/35
f 52/37/36 79/21/47 14/40/134
f 52/37/36 81/25/49 79/21/47
f 53/34/154 59/66/194 58/71/186
f 58/71/184 59/66/191 8/91/90
f 59/66/189 53/34/149 54/23/158
f 59/66/192 54/23/159 5/42/75
f 61/74/205 26/59/10 12/56/118
f 62/69/211 74/68/42 14/40/130
f 63/22/220 45/38/29 13/41/126
f 64/20/223 79/21/47 10/2/104
f 65/77/229 84/76/52 15/95/137
f 66/28/236 85/29/53 11/57/112
f 67/67/241 29/89/13 16/93/144
f 68/33/250 42/7/26 9/4/98
f 73/64/41 78/63/46 33/45/17
f 74/68/42 73/64/41 34/43/18
f 75/26/43 88/24/56 47/12/31
f 76/32/44 68/33/248 44/53/28
f 77/30/45 80/31/48 38/52/22
f 78/63/46 82/65/50 32/46/16
f 79/21/47 81/25/49 49/5/33
f 80/31/48 76/32/44 43/51/27
f 81/25/49 75/26/43 50/11/34
f 82/65/50 67/67/243 31/44/15
f 83/72/51 61/74/206 28/90/12
f 84/76/52 87/75/55 22/94/6
f 85/29/53 77/30/45 37/54/21
f 86/73/54 83/72/51 27/87/11
f 87/75/55 86/73/54 21/88/5
f 88/24/56 63/22/218 48/8/32
g cube1_mtrl/rail
usemtl mtrl/rail
f 1/6/59 53/34/156 9/4/99
f 2/1/60 64/20/221 10/2/101
f 2/1/62 66/28/235 55/27/166
f 3/58/66 65/77/227 57/78/176
f 3/58/67 66/28/233 11/57/110
f 5/42/77 54/23/163 13/41/127
f 6/39/82 62/69/214 14/40/132
f 6/39/80 64/20/224 56/19/174
f 7/96/84 62/69/210 60/70/198
f 7/96/89 65/77/232 15/95/141
f 8/91/91 59/66/195 16/93/145
f 9/4/96 53/34/153 68/33/247
f 9/4/94 54/23/157 1/6/57
f 10/2/106 66/28/238 2/1/65
f 11/57/111 65/77/230 3/58/69
f 12/56/117 53/34/150 4/55/72
f 12/56/115 58/71/182 61/74/204
f 13/41/123 54/23/162 63/22/219
f 13/41/124 59/66/196 5/42/76
f 14/40/133 64/20/226 6/39/83
f 15/95/139 62/69/213 7/96/86
f 16/93/148 58/71/188 8/91/92
f 16/93/143 59/66/190 67/67/240
f 55/27/168 66/28/237 3/58/71
f 56/19/172 64/20/222 2/1/63
f 57/78/180 65/77/231 7/96/87
f 58/71/185 12/56/119 4/55/74
f 60/70/200 62/69/212 6/39/79
f 61/74/207 58/71/187 16/93/146
f 63/22/217 54/23/161 9/4/97
f 67/67/242 59/66/193 13/41/122
f 68/33/249 53/34/155 12/56/120
g cube1_mtrl/turf-shiny
usemtl mtrl/turf-shiny
f 69/49/37 72/80/40 20/81/4
f 70/48/38 71/17/39 18/16/2
f 71/17/39 69/49/37 17/18/1
f 71/17/39 70/48/38 69/49/37
f 72/80/40 69/49/37 70/48/38
f 72/80/40 70/48/38 19/79/3
g cube1_mtrl/turf-shiny-light
usemtl mtrl/turf-shiny-light
f 2/13/61 18/16/2 56/14/170
f 6/15/78 17/18/1 60/50/197
f 6/15/81 56/14/175 17/18/1
f 7/84/88 60/50/202 20/81/4
f 17/18/1 56/14/171 71/17/39
f 18/16/2 55/47/164 70/48/38
f 19/79/3 55/47/165 3/82/68
f 19/79/3 57/83/177 72/80/40
f 20/81/4 57/83/178 7/84/85
f 20/81/4 60/50/199 69/49/37
f 55/47/167 18/16/2 2/13/64
f 57/83/179 19/79/3 3/82/70
f 69/49/37 60/50/201 17/18/1
f 70/48/38 55/47/169 19/79/3
f 71/17/39 56/14/173 18/16/2
f 72/80/40 57/83/181 20/81/4
