# Exported from Wings 3D 0.98.22c
mtllib xrail3.mtl
o cylinder1
#32 vertices, 34 faces
v 1.50000 0.250000 -4.99973e-2
v 1.50000 0.230866 -4.61913e-2
v 1.50000 0.214645 -3.53527e-2
v 1.50000 0.203806 -1.91315e-2
v 1.50000 0.200000 2.65359e-6
v 1.50000 0.203806 1.91368e-2
v 1.50000 0.214645 3.53580e-2
v 1.50000 0.230866 4.61966e-2
v 1.50000 0.250000 5.00027e-2
v 1.50000 0.269134 4.61966e-2
v 1.50000 0.285355 3.53580e-2
v 1.50000 0.296194 1.91368e-2
v 1.50000 0.300000 2.65359e-6
v 1.50000 0.296194 -1.91315e-2
v 1.50000 0.285355 -3.53527e-2
v 1.50000 0.269134 -4.61913e-2
v -1.50000 0.250000 -5.00027e-2
v -1.50000 0.230866 -4.61966e-2
v -1.50000 0.214645 -3.53580e-2
v -1.50000 0.203806 -1.91368e-2
v -1.50000 0.200000 -2.65359e-6
v -1.50000 0.203806 1.91315e-2
v -1.50000 0.214645 3.53527e-2
v -1.50000 0.230866 4.61913e-2
v -1.50000 0.250000 4.99973e-2
v -1.50000 0.269134 4.61913e-2
v -1.50000 0.285355 3.53527e-2
v -1.50000 0.296194 1.91315e-2
v -1.50000 0.300000 -2.65359e-6
v -1.50000 0.296194 -1.91368e-2
v -1.50000 0.285355 -3.53580e-2
v -1.50000 0.269134 -4.61966e-2
vt 0.00000e+0 1.99019e-6
vt 0.00000e+0 0.175716
vt 2.10324e-8 0.185471
vt 7.00242e-8 9.75649e-3
vt 2.32693e-7 1.95110e-2
vt 3.11359e-7 0.156074
vt 3.42079e-7 0.146320
vt 4.66303e-7 0.136565
vt 4.66981e-7 2.92655e-2
vt 6.61382e-7 0.126811
vt 7.39562e-7 3.90200e-2
vt 8.95274e-7 0.117056
vt 1.01228e-6 4.87745e-2
vt 1.12903e-6 0.107302
vt 1.24644e-6 5.85290e-2
vt 1.32423e-6 9.75470e-2
vt 1.40927e-6 6.82835e-2
vt 1.44830e-6 8.77925e-2
vt 1.47916e-6 7.80380e-2
vt 3.73287e-3 0.166704
vt 3.73293e-3 0.194483
vt 1.06303e-2 0.159807
vt 1.06304e-2 0.201380
vt 1.96423e-2 0.156074
vt 1.96424e-2 0.205113
vt 2.93968e-2 0.156074
vt 2.93969e-2 0.205113
vt 3.84088e-2 0.159807
vt 3.84089e-2 0.201380
vt 4.53063e-2 0.166704
vt 4.53063e-2 0.194483
vt 4.90392e-2 0.175716
vt 4.90392e-2 0.175716
vt 4.90392e-2 0.185471
vt 4.90392e-2 0.185471
vt 5.27721e-2 0.166704
vt 5.27721e-2 0.194483
vt 5.96695e-2 0.159807
vt 5.96696e-2 0.201380
vt 6.86815e-2 0.156074
vt 6.86816e-2 0.205113
vt 7.84360e-2 0.156074
vt 7.84361e-2 0.205113
vt 8.74480e-2 0.159807
vt 8.74481e-2 0.201380
vt 9.43455e-2 0.166704
vt 9.43456e-2 0.194483
vt 9.80784e-2 0.175716
vt 9.80784e-2 0.185471
vt 0.999999 0.00000e+0
vt 0.999999 9.75450e-3
vt 0.999999 1.95090e-2
vt 0.999999 0.156072
vt 0.999999 0.146318
vt 0.999999 0.136563
vt 0.999999 2.92635e-2
vt 0.999999 0.126809
vt 0.999999 3.90180e-2
vt 0.999999 0.117054
vt 1.000000 4.87725e-2
vt 1.000000 0.107300
vt 1.000000 5.85270e-2
vt 1.000000 9.75450e-2
vt 1.000000 6.82815e-2
vt 1.000000 8.77905e-2
vt 1.00000 7.80360e-2
vn 1.000000 3.98038e-5 9.95096e-7
vn 1.76906e-6 1.33007e-15 -1.000000
vn 1.76906e-6 1.33714e-15 -1.000000
vn 1.76906e-6 1.33007e-15 -1.000000
vn 1.76906e-6 1.33714e-15 -1.000000
vn 1.000000 3.98038e-5 9.95096e-7
vn 1.60562e-6 -0.442968 -0.896538
vn 1.60562e-6 -0.442968 -0.896538
vn 1.60562e-6 -0.442968 -0.896538
vn 1.000000 3.98038e-5 9.95096e-7
vn 1.19869e-6 -0.752339 -0.658776
vn 1.19869e-6 -0.752339 -0.658776
vn 1.19869e-6 -0.752339 -0.658776
vn 1.000000 3.98038e-5 9.95096e-7
vn 6.09267e-7 -0.947173 -0.320722
vn 6.09267e-7 -0.947173 -0.320722
vn 6.09267e-7 -0.947173 -0.320722
vn 1.000000 3.98038e-5 9.95096e-7
vn -7.29094e-8 -0.997809 6.61589e-2
vn -7.29094e-8 -0.997809 6.61589e-2
vn -7.29094e-8 -0.997809 6.61589e-2
vn 1.000000 3.98038e-5 9.95096e-7
vn -7.43986e-7 -0.896538 0.442968
vn -7.43986e-7 -0.896538 0.442968
vn -7.43986e-7 -0.896538 0.442968
vn 1.000000 3.98038e-5 9.95096e-7
vn -1.30180e-6 -0.658776 0.752339
vn -1.30180e-6 -0.658776 0.752339
vn -1.30180e-6 -0.658776 0.752339
vn 1.000000 3.98038e-5 9.95096e-7
vn -1.66142e-6 -0.320722 0.947173
vn -1.66142e-6 -0.320722 0.947173
vn -1.66142e-6 -0.320722 0.947173
vn 1.000000 3.98038e-5 9.95096e-7
vn -1.76906e-6 -1.95265e-15 1.000000
vn -1.76906e-6 -1.95265e-15 1.000000
vn 1.000000 3.98038e-5 9.95096e-7
vn -1.68979e-6 0.320722 0.947173
vn -1.68979e-6 0.320722 0.947173
vn -1.68979e-6 0.320722 0.947173
vn 1.000000 3.98038e-5 9.95096e-7
vn -1.36007e-6 0.658776 0.752339
vn -1.36007e-6 0.658776 0.752339
vn -1.36007e-6 0.658776 0.752339
vn 1.000000 3.98038e-5 9.95096e-7
vn -8.23287e-7 0.896538 0.442968
vn -8.23287e-7 0.896538 0.442968
vn -8.23287e-7 0.896538 0.442968
vn 1.000000 3.98038e-5 9.95096e-7
vn -1.61169e-7 0.997809 6.61589e-2
vn -1.61169e-7 0.997809 6.61589e-2
vn -1.61169e-7 0.997809 6.61589e-2
vn 1.000000 3.98038e-5 9.95096e-7
vn 5.25487e-7 0.947173 -0.320722
vn 5.25487e-7 0.947173 -0.320722
vn 5.25487e-7 0.947173 -0.320722
vn 1.000000 3.98038e-5 9.95096e-7
vn 1.13214e-6 0.752339 -0.658776
vn 1.13214e-6 0.752339 -0.658776
vn 1.13214e-6 0.752339 -0.658776
vn 1.000000 3.98038e-5 9.95096e-7
vn 1.56644e-6 0.442968 -0.896538
vn 1.56644e-6 0.442968 -0.896538
vn 1.56644e-6 0.442968 -0.896538
vn -1.000000 -3.98038e-5 -9.95096e-7
vn 1.76906e-6 1.89606e-15 -1.000000
vn 1.76906e-6 1.89606e-15 -1.000000
vn -1.000000 -3.98038e-5 -9.95096e-7
vn 1.68979e-6 -0.320722 -0.947173
vn 1.68979e-6 -0.320722 -0.947173
vn 1.68979e-6 -0.320722 -0.947173
vn -1.000000 -3.98038e-5 -9.95096e-7
vn 1.36007e-6 -0.658776 -0.752339
vn 1.36007e-6 -0.658776 -0.752339
vn 1.36007e-6 -0.658776 -0.752339
vn -1.000000 -3.98038e-5 -9.95096e-7
vn 8.23287e-7 -0.896538 -0.442968
vn 8.23287e-7 -0.896538 -0.442968
vn 8.23287e-7 -0.896538 -0.442968
vn -1.000000 -3.98038e-5 -9.95096e-7
vn 1.61169e-7 -0.997809 -6.61589e-2
vn 1.61169e-7 -0.997809 -6.61589e-2
vn 1.61169e-7 -0.997809 -6.61589e-2
vn -1.000000 -3.98038e-5 -9.95096e-7
vn -5.25487e-7 -0.947173 0.320722
vn -5.25487e-7 -0.947173 0.320722
vn -5.25487e-7 -0.947173 0.320722
vn -1.000000 -3.98038e-5 -9.95096e-7
vn -1.13214e-6 -0.752339 0.658776
vn -1.13214e-6 -0.752339 0.658776
vn -1.13214e-6 -0.752339 0.658776
vn -1.000000 -3.98038e-5 -9.95096e-7
vn -1.56644e-6 -0.442968 0.896538
vn -1.56644e-6 -0.442968 0.896538
vn -1.56644e-6 -0.442968 0.896538
vn -1.000000 -3.98038e-5 -9.95096e-7
vn -1.76906e-6 -1.66259e-15 1.000000
vn -1.76906e-6 -1.66259e-15 1.000000
vn -1.76906e-6 -1.66259e-15 1.000000
vn -1.76906e-6 -1.66966e-15 1.000000
vn -1.000000 -3.98038e-5 -9.95096e-7
vn -1.60562e-6 0.442968 0.896538
vn -1.60562e-6 0.442968 0.896538
vn -1.60562e-6 0.442968 0.896538
vn -1.000000 -3.98038e-5 -9.95096e-7
vn -1.19869e-6 0.752339 0.658776
vn -1.19869e-6 0.752339 0.658776
vn -1.19869e-6 0.752339 0.658776
vn -1.000000 -3.98038e-5 -9.95096e-7
vn -6.09267e-7 0.947173 0.320722
vn -6.09267e-7 0.947173 0.320722
vn -6.09267e-7 0.947173 0.320722
vn -1.000000 -3.98038e-5 -9.95096e-7
vn 7.29094e-8 0.997809 -6.61589e-2
vn 7.29094e-8 0.997809 -6.61589e-2
vn 7.29094e-8 0.997809 -6.61589e-2
vn -1.000000 -3.98038e-5 -9.95096e-7
vn 7.43986e-7 0.896538 -0.442968
vn 7.43986e-7 0.896538 -0.442968
vn 7.43986e-7 0.896538 -0.442968
vn -1.000000 -3.98038e-5 -9.95096e-7
vn 1.30180e-6 0.658776 -0.752339
vn 1.30180e-6 0.658776 -0.752339
vn 1.30180e-6 0.658776 -0.752339
vn -1.000000 -3.98038e-5 -9.95096e-7
vn 1.66142e-6 0.320722 -0.947173
vn 1.66142e-6 0.320722 -0.947173
vn 1.66142e-6 0.320722 -0.947173
g cylinder1_mtrl/chrome
usemtl mtrl/chrome
f 1/11/5 18/56/71 17/58/67
f 1/11/4 32/60/128 16/13/63
f 2/9/8 18/56/69 1/11/3
f 2/9/9 19/52/75 18/56/70
f 3/5/12 19/52/73 2/9/7
f 3/5/13 20/51/79 19/52/74
f 4/4/16 20/51/77 3/5/11
f 4/4/17 21/50/83 20/51/78
f 5/1/20 21/50/81 4/4/15
f 5/6/21 22/54/87 21/53/82
f 6/7/24 22/54/85 5/6/19
f 6/7/25 23/55/91 22/54/86
f 7/8/28 23/55/89 6/7/23
f 7/8/29 24/57/95 23/55/90
f 8/10/32 24/57/93 7/8/27
f 8/10/33 25/59/100 24/57/94
f 9/12/35 25/59/98 8/10/31
f 10/14/40 25/59/99 9/12/36
f 11/16/44 26/61/104 10/14/39
f 12/18/48 27/63/108 11/16/43
f 13/19/52 28/65/112 12/18/47
f 14/17/56 29/66/116 13/19/51
f 15/15/60 30/64/120 14/17/55
f 16/13/64 31/62/124 15/15/59
f 17/58/66 32/60/126 1/11/2
f 26/61/103 25/59/97 10/14/38
f 27/63/107 26/61/102 11/16/42
f 28/65/111 27/63/106 12/18/46
f 29/66/115 28/65/110 13/19/50
f 30/64/119 29/66/114 14/17/54
f 31/62/123 30/64/118 15/15/58
f 32/60/127 31/62/122 16/13/62
g cylinder1_mtrl/invisible
usemtl mtrl/invisible
f 1/40/1 16/42/61 15/44/57 14/46/53 13/48/49 12/49/45 11/47/41 10/45/37 9/43/34 8/41/30 7/39/26 6/37/22 5/35/18 4/33/14 3/36/10 2/38/6
f 18/28/68 19/30/72 20/32/76 21/34/80 22/31/84 23/29/88 24/27/92 25/25/96 26/23/101 27/21/105 28/3/109 29/2/113 30/20/117 31/22/121 32/24/125 17/26/65
